<svg xmlns="http://www.w3.org/2000/svg" xmlns:xlink="http://www.w3.org/1999/xlink" width="400" zoomAndPan="magnify" viewBox="0 0 300 74.999997" height="100" preserveAspectRatio="xMidYMid meet" version="1.0"><defs><clipPath id="d638c0db73"><path d="M 75.109375 1.066406 L 219.859375 1.066406 L 219.859375 73.546875 L 75.109375 73.546875 Z M 75.109375 1.066406 " clip-rule="nonzero"/></clipPath><clipPath id="dd4a2343c2"><path d="M 105 21.6875 L 179.914062 21.6875 L 179.914062 73.4375 L 105 73.4375 Z M 105 21.6875 " clip-rule="nonzero"/></clipPath><clipPath id="a1bd34970e"><path d="M 168.632812 37 L 224.671875 37 L 224.671875 73.6875 L 168.632812 73.6875 Z M 168.632812 37 " clip-rule="nonzero"/></clipPath><clipPath id="f0acf1e539"><path d="M 91.339844 41 L 118 41 L 118 73.6875 L 91.339844 73.6875 Z M 91.339844 41 " clip-rule="nonzero"/></clipPath><clipPath id="850df7fb9a"><path d="M 143 15.136719 L 164 15.136719 L 164 36.886719 L 143 36.886719 Z M 143 15.136719 " clip-rule="nonzero"/></clipPath></defs><g clip-path="url(#d638c0db73)"><path fill="#3874ff" d="M 220.015625 73.546875 C 220.015625 33.511719 187.570312 1.066406 147.535156 1.066406 C 107.5 1.066406 75.179688 33.511719 75.179688 73.546875 Z M 220.015625 73.546875 " fill-opacity="1" fill-rule="nonzero"/></g><g clip-path="url(#dd4a2343c2)"><path fill="#fc7071" d="M 118.226562 21.769531 C 117.667969 21.808594 117.160156 21.867188 117.09375 21.914062 C 117.027344 21.953125 116.699219 22.03125 116.375 22.070312 C 115.144531 22.25 113.945312 22.761719 112.847656 23.578125 C 112.503906 23.824219 112.042969 24.160156 111.820312 24.304688 C 111.425781 24.585938 111.285156 24.816406 111.167969 25.410156 C 111.128906 25.582031 110.851562 26.042969 110.535156 26.429688 C 110.015625 27.082031 109.890625 27.167969 108.882812 27.675781 C 108.289062 27.972656 107.730469 28.214844 107.644531 28.214844 C 107.566406 28.214844 107.441406 28.28125 107.375 28.359375 C 107.308594 28.433594 107.085938 28.550781 106.867188 28.609375 C 106.65625 28.664062 106.320312 28.808594 106.117188 28.945312 C 105.914062 29.070312 105.683594 29.175781 105.609375 29.175781 C 105.539062 29.175781 105.378906 29.25 105.253906 29.355469 C 104.972656 29.578125 104.957031 30.085938 105.214844 30.757812 C 105.308594 31.019531 105.484375 31.488281 105.589844 31.785156 C 105.703125 32.09375 105.859375 32.363281 105.933594 32.402344 C 106.675781 32.71875 108.660156 32.851562 109.910156 32.679688 C 110.449219 32.601562 110.9375 32.535156 111.003906 32.535156 C 111.1875 32.535156 111.140625 32.707031 110.917969 32.902344 C 110.804688 32.988281 110.660156 33.121094 110.59375 33.179688 C 110.515625 33.246094 110.417969 33.304688 110.371094 33.304688 C 110.199219 33.304688 109.152344 34.1875 109.027344 34.4375 C 108.949219 34.582031 108.730469 34.8125 108.519531 34.957031 C 108.277344 35.128906 108.144531 35.300781 108.144531 35.425781 C 108.144531 35.609375 108.183594 35.628906 108.480469 35.578125 C 108.777344 35.53125 108.816406 35.550781 108.816406 35.742188 C 108.816406 36.445312 109.796875 37.097656 110.832031 37.085938 C 111.410156 37.085938 111.542969 37.039062 112.65625 36.453125 C 114.394531 35.542969 115.605469 35.136719 115.777344 35.417969 C 115.875 35.5625 116.460938 35.53125 116.59375 35.367188 C 116.757812 35.175781 116.816406 35.1875 117.121094 35.472656 C 117.382812 35.714844 117.4375 35.722656 118.003906 35.667969 L 118.621094 35.597656 L 119.167969 36.089844 C 119.464844 36.347656 119.742188 36.570312 119.78125 36.570312 C 119.820312 36.570312 119.945312 36.75 120.0625 36.972656 C 120.175781 37.203125 120.328125 37.421875 120.386719 37.480469 C 120.453125 37.53125 120.539062 37.730469 120.570312 37.914062 C 120.78125 39.046875 120.800781 39.296875 120.714844 39.535156 C 120.589844 39.863281 120.242188 41.484375 120.175781 42.070312 C 120.078125 42.878906 120.300781 43.648438 120.828125 44.367188 C 121.078125 44.722656 121.386719 45.191406 121.492188 45.414062 C 121.605469 45.625 121.875 46.058594 122.097656 46.363281 C 122.664062 47.160156 123.21875 48.148438 123.21875 48.363281 C 123.21875 48.699219 122.835938 49.425781 122.472656 49.800781 C 121.941406 50.332031 121.214844 50.945312 121.03125 51.023438 C 120.945312 51.050781 120.695312 51.214844 120.484375 51.367188 C 120.273438 51.53125 119.714844 51.875 119.234375 52.144531 C 118.765625 52.414062 118.351562 52.652344 118.324219 52.691406 C 118.292969 52.722656 118.148438 52.816406 117.996094 52.894531 C 117.601562 53.097656 116.996094 53.816406 116.699219 54.429688 C 116.480469 54.910156 116.449219 55.054688 116.460938 56.109375 C 116.460938 57.082031 116.488281 57.3125 116.652344 57.550781 C 116.941406 58.023438 117.6875 58.945312 117.765625 58.945312 C 117.8125 58.945312 117.84375 59 117.84375 59.078125 C 117.84375 59.15625 117.878906 59.230469 117.917969 59.25 C 118.082031 59.320312 118.660156 60.382812 118.859375 60.980469 C 118.898438 61.074219 118.957031 61.152344 118.996094 61.152344 C 119.023438 61.152344 119.28125 61.355469 119.550781 61.605469 C 120.175781 62.199219 120.511719 62.449219 120.945312 62.652344 C 121.136719 62.746094 121.300781 62.851562 121.300781 62.902344 C 121.300781 62.9375 121.40625 62.976562 121.53125 62.976562 C 121.664062 62.976562 121.933594 63.074219 122.136719 63.199219 C 122.453125 63.378906 122.664062 63.410156 123.699219 63.4375 C 124.582031 63.46875 124.949219 63.4375 125.074219 63.34375 C 125.265625 63.199219 125.449219 62.257812 125.332031 62.015625 C 125.238281 61.84375 124.910156 60.941406 124.785156 60.527344 C 124.71875 60.277344 124.652344 60.242188 124.34375 60.210938 C 124.152344 60.191406 123.988281 60.144531 123.988281 60.097656 C 123.988281 59.960938 123.21875 59.636719 123.027344 59.683594 C 122.902344 59.722656 122.835938 59.683594 122.835938 59.597656 C 122.835938 59.394531 122.277344 58.761719 121.953125 58.597656 C 121.808594 58.523438 121.683594 58.386719 121.683594 58.292969 C 121.683594 58.023438 121.214844 57.40625 121.011719 57.40625 C 120.894531 57.40625 120.800781 57.320312 120.761719 57.175781 C 120.664062 56.800781 120.753906 56.609375 121.050781 56.535156 C 121.203125 56.484375 121.445312 56.339844 121.585938 56.207031 C 121.921875 55.878906 122.527344 55.582031 122.84375 55.582031 C 122.988281 55.582031 123.125 55.542969 123.144531 55.507812 C 123.164062 55.46875 123.519531 55.332031 123.941406 55.207031 C 124.796875 54.96875 125.582031 54.691406 126.992188 54.132812 C 127.503906 53.921875 128.039062 53.757812 128.164062 53.757812 C 128.300781 53.757812 128.40625 53.730469 128.40625 53.683594 C 128.40625 53.644531 128.664062 53.488281 128.992188 53.335938 C 129.308594 53.183594 129.597656 53 129.625 52.933594 C 129.691406 52.761719 129.941406 52.761719 129.941406 52.933594 C 129.941406 53.132812 129.75 53.664062 129.414062 54.382812 C 129.242188 54.746094 129.066406 55.160156 129.03125 55.296875 C 128.992188 55.417969 128.894531 55.582031 128.828125 55.660156 C 128.75 55.726562 128.695312 55.863281 128.695312 55.957031 C 128.695312 56.042969 128.65625 56.160156 128.605469 56.207031 C 128.570312 56.265625 128.367188 56.679688 128.175781 57.128906 C 127.878906 57.839844 127.828125 58.0625 127.828125 58.683594 C 127.828125 59.261719 127.878906 59.492188 128.039062 59.78125 C 128.15625 59.980469 128.300781 60.171875 128.359375 60.210938 C 128.414062 60.25 128.589844 60.472656 128.742188 60.710938 C 128.886719 60.941406 129.097656 61.152344 129.210938 61.183594 C 129.328125 61.210938 129.671875 61.335938 129.988281 61.46875 C 130.414062 61.644531 130.835938 61.730469 131.554688 61.777344 C 132.09375 61.816406 132.535156 61.882812 132.535156 61.921875 C 132.535156 61.960938 132.804688 62.015625 133.140625 62.046875 C 133.464844 62.066406 134.15625 62.179688 134.6875 62.296875 C 135.203125 62.410156 135.964844 62.527344 136.367188 62.546875 C 136.769531 62.566406 137.222656 62.621094 137.367188 62.679688 C 137.519531 62.738281 137.738281 62.785156 137.875 62.785156 C 138 62.785156 138.105469 62.824219 138.105469 62.882812 C 138.105469 62.9375 138.546875 62.976562 139.238281 62.976562 L 140.363281 62.96875 L 140.535156 62.601562 C 140.753906 62.121094 140.746094 61.375 140.496094 60.722656 C 140.265625 60.097656 139.785156 59.519531 139.496094 59.519531 C 139.390625 59.519531 139.191406 59.460938 139.054688 59.386719 C 138.910156 59.320312 138.679688 59.261719 138.527344 59.25 C 138.382812 59.25 138.238281 59.203125 138.21875 59.144531 C 138.171875 59 137.75 59.011719 137.683594 59.15625 C 137.632812 59.25 137.613281 59.25 137.566406 59.15625 C 137.5 59 137.269531 59 137.222656 59.15625 C 137.191406 59.242188 137.136719 59.230469 137.011719 59.117188 C 136.796875 58.894531 136.125 58.722656 135.808594 58.800781 C 135.398438 58.894531 135.03125 59.058594 135.03125 59.144531 C 135.03125 59.195312 134.859375 59.230469 134.648438 59.230469 C 134.4375 59.230469 134.261719 59.195312 134.261719 59.15625 C 134.261719 59.105469 134.023438 59 133.734375 58.90625 C 133.449219 58.820312 133.207031 58.703125 133.207031 58.65625 C 133.207031 58.597656 133.648438 57.820312 134.195312 56.910156 C 134.742188 55.996094 135.320312 55.015625 135.464844 54.738281 C 135.617188 54.449219 135.867188 54.113281 136.019531 53.988281 C 136.289062 53.769531 136.335938 53.757812 137.960938 53.757812 C 138.875 53.757812 139.640625 53.71875 139.660156 53.671875 C 139.726562 53.480469 143.65625 52.808594 144.710938 52.796875 C 145.039062 52.796875 145.308594 52.761719 145.308594 52.703125 C 145.308594 52.644531 145.585938 52.605469 145.960938 52.605469 C 146.371094 52.605469 146.871094 52.519531 147.371094 52.367188 C 147.792969 52.230469 148.246094 52.125 148.378906 52.125 C 148.515625 52.125 148.746094 52.058594 148.890625 51.980469 C 149.042969 51.90625 149.492188 51.789062 149.898438 51.730469 C 150.300781 51.675781 150.875 51.597656 151.164062 51.550781 C 151.453125 51.5 151.855469 51.464844 152.058594 51.464844 L 152.414062 51.453125 L 152.414062 51.933594 C 152.414062 52.585938 153.355469 54.929688 153.816406 55.4375 C 153.921875 55.554688 154.140625 55.917969 154.304688 56.253906 C 154.476562 56.601562 154.902344 57.175781 155.246094 57.542969 C 155.59375 57.90625 155.871094 58.242188 155.871094 58.28125 C 155.871094 58.328125 155.929688 58.367188 155.996094 58.367188 C 156.109375 58.367188 156.832031 58.984375 156.832031 59.089844 C 156.832031 59.222656 157.445312 59.90625 157.570312 59.90625 C 157.636719 59.90625 157.695312 59.953125 157.695312 60.011719 C 157.695312 60.066406 157.878906 60.277344 158.097656 60.472656 C 158.320312 60.664062 158.578125 60.882812 158.664062 60.980469 C 158.75 61.066406 158.914062 61.164062 159.019531 61.191406 C 159.203125 61.25 160.574219 62.566406 160.875 62.96875 C 160.960938 63.082031 161.085938 63.351562 161.160156 63.582031 C 161.230469 63.804688 161.316406 64.003906 161.34375 64.035156 C 161.371094 64.0625 161.480469 64.332031 161.566406 64.640625 C 161.738281 65.1875 161.71875 65.695312 161.527344 65.808594 C 161.480469 65.847656 161.441406 65.992188 161.441406 66.15625 C 161.441406 66.308594 161.402344 66.433594 161.34375 66.433594 C 161.296875 66.433594 161.25 66.484375 161.25 66.539062 C 161.25 66.65625 160.671875 67.527344 160.558594 67.566406 C 160.519531 67.585938 160.480469 67.636719 160.480469 67.683594 C 160.480469 67.789062 158.617188 69.660156 158.308594 69.863281 C 158.128906 69.976562 157.78125 70.035156 157.011719 70.066406 C 156.4375 70.09375 155.964844 70.140625 155.964844 70.179688 C 155.964844 70.226562 155.804688 70.285156 155.601562 70.324219 C 155.34375 70.363281 155.074219 70.535156 154.640625 70.9375 C 154.121094 71.417969 154.046875 71.535156 154.046875 71.839844 C 154.046875 72.082031 153.996094 72.195312 153.910156 72.195312 C 153.75 72.195312 153.277344 72.734375 153.277344 72.925781 C 153.277344 73.003906 153.355469 73.097656 153.449219 73.128906 C 153.535156 73.167969 153.671875 73.273438 153.738281 73.359375 C 153.804688 73.453125 154.046875 73.558594 154.277344 73.589844 C 155.515625 73.78125 160.355469 73.523438 160.863281 73.242188 C 161.402344 72.945312 161.566406 72.714844 161.515625 72.3125 C 161.46875 71.984375 161.507812 71.890625 161.785156 71.582031 C 161.957031 71.390625 162.140625 71.234375 162.1875 71.234375 C 162.246094 71.234375 162.3125 71.121094 162.34375 70.988281 C 162.382812 70.851562 162.898438 70.246094 163.503906 69.640625 C 164.109375 69.027344 164.609375 68.480469 164.609375 68.421875 C 164.609375 68.363281 164.792969 68.132812 165.023438 67.921875 C 165.242188 67.710938 165.519531 67.335938 165.636719 67.085938 C 165.761719 66.828125 165.894531 66.625 165.953125 66.625 C 166 66.625 166.050781 66.558594 166.050781 66.484375 C 166.050781 66.28125 166.625 65.167969 166.835938 64.957031 C 167.011719 64.800781 167.019531 64.675781 166.980469 63.765625 L 166.933594 62.738281 L 166.492188 62.324219 C 166.25 62.09375 166.050781 61.875 166.050781 61.816406 C 166.050781 61.765625 165.875 61.546875 165.664062 61.335938 C 165.453125 61.113281 165.28125 60.894531 165.28125 60.84375 C 165.28125 60.796875 165.136719 60.625 164.964844 60.453125 C 164.617188 60.125 164.226562 59.300781 164.226562 58.90625 C 164.226562 58.769531 164.136719 58.589844 164.042969 58.492188 C 163.9375 58.398438 163.773438 58.0625 163.667969 57.742188 C 163.503906 57.246094 163.496094 57.03125 163.5625 56.109375 C 163.640625 55.082031 163.839844 54.324219 164.101562 54.066406 C 164.167969 54 164.226562 53.875 164.226562 53.804688 C 164.226562 53.683594 164.5625 53.105469 164.800781 52.828125 C 164.847656 52.761719 164.898438 52.664062 164.898438 52.605469 C 164.898438 52.546875 164.964844 52.433594 165.042969 52.355469 C 165.117188 52.269531 165.183594 52.105469 165.183594 51.980469 C 165.183594 51.855469 165.320312 51.472656 165.472656 51.117188 C 165.636719 50.761719 165.761719 50.417969 165.761719 50.339844 C 165.761719 50.261719 165.828125 50.175781 165.90625 50.148438 C 165.980469 50.109375 166.050781 50.03125 166.050781 49.957031 C 166.050781 49.878906 166.15625 49.65625 166.28125 49.457031 C 166.394531 49.265625 166.53125 49.003906 166.566406 48.890625 C 166.605469 48.765625 166.703125 48.609375 166.769531 48.535156 C 167.019531 48.285156 167.125 46.414062 167 44.585938 C 166.941406 43.683594 166.855469 42.925781 166.808594 42.898438 C 166.761719 42.867188 166.691406 42.628906 166.65625 42.359375 C 166.605469 41.9375 166.625 41.839844 166.808594 41.695312 C 166.914062 41.601562 167.011719 41.464844 167.011719 41.410156 C 167.011719 41.339844 167.152344 41.179688 167.335938 41.035156 C 167.519531 40.890625 167.875 40.582031 168.132812 40.351562 C 168.382812 40.121094 168.652344 39.929688 168.71875 39.929688 C 168.777344 39.929688 168.835938 39.890625 168.835938 39.84375 C 168.835938 39.765625 169.804688 38.949219 170.332031 38.585938 C 170.449219 38.507812 170.726562 38.203125 170.957031 37.914062 C 171.417969 37.328125 171.6875 37.058594 172.570312 36.28125 C 172.90625 35.992188 173.359375 35.578125 173.578125 35.359375 C 173.808594 35.136719 174.058594 34.925781 174.136719 34.878906 C 174.222656 34.832031 174.421875 34.628906 174.578125 34.425781 C 175.039062 33.851562 176.199219 32.851562 176.691406 32.621094 C 176.941406 32.496094 177.199219 32.34375 177.265625 32.277344 C 177.332031 32.210938 177.457031 32.152344 177.535156 32.152344 C 177.667969 32.152344 178.515625 31.71875 179.351562 31.230469 C 179.773438 30.988281 180.070312 30.597656 180.070312 30.277344 C 180.070312 30.183594 179.972656 30.136719 179.761719 30.136719 C 179.589844 30.136719 179.207031 30.046875 178.90625 29.953125 C 178.359375 29.769531 177.746094 29.800781 177.238281 30.03125 C 177.132812 30.078125 176.765625 30.171875 176.421875 30.242188 C 175.804688 30.355469 174.683594 30.808594 174.402344 31.046875 C 174.328125 31.113281 174.117188 31.210938 173.953125 31.269531 C 173.617188 31.382812 172.992188 31.816406 172.808594 32.054688 C 172.742188 32.132812 172.453125 32.449219 172.15625 32.757812 C 171.859375 33.074219 171.621094 33.382812 171.621094 33.457031 C 171.621094 33.535156 171.5625 33.59375 171.496094 33.59375 C 171.425781 33.59375 171.214844 33.746094 171.035156 33.9375 C 170.726562 34.253906 169.660156 35.03125 169.515625 35.03125 C 169.429688 35.03125 169.09375 35.417969 168.890625 35.722656 C 168.796875 35.878906 168.660156 35.992188 168.59375 35.992188 C 168.519531 35.992188 168.316406 36.136719 168.132812 36.300781 C 167.703125 36.703125 167.539062 36.820312 167.039062 37.050781 C 166.433594 37.335938 164.707031 37.816406 164.273438 37.816406 C 163.570312 37.808594 162.277344 37.453125 161.105469 36.953125 C 158.644531 35.878906 156.042969 35.214844 153.375 34.957031 C 151.855469 34.8125 147.640625 34.832031 145.546875 34.996094 C 143.242188 35.175781 142.523438 35.128906 141.695312 34.746094 C 140.949219 34.398438 140.179688 34.167969 139.796875 34.167969 C 139.476562 34.167969 138.058594 33.660156 137.816406 33.457031 C 137.375 33.09375 136.867188 32.902344 136.144531 32.824219 C 134.925781 32.691406 134.53125 32.59375 134.121094 32.316406 C 133.871094 32.152344 133.515625 32.027344 133.082031 31.96875 C 132.640625 31.910156 132.238281 31.765625 131.835938 31.535156 C 131.105469 31.132812 130.019531 30.066406 129.636719 29.394531 C 129.367188 28.914062 129.078125 28.597656 127.523438 27.003906 L 126.851562 26.3125 L 127.28125 26.015625 C 127.589844 25.804688 127.828125 25.71875 128.097656 25.71875 C 128.683594 25.71875 128.789062 25.652344 128.789062 25.246094 C 128.789062 25.054688 128.75 24.851562 128.703125 24.796875 C 128.605469 24.691406 128.40625 23.683594 128.40625 23.269531 C 128.40625 23.097656 128.328125 22.894531 128.234375 22.808594 C 128.050781 22.636719 127.253906 22.453125 126.714844 22.453125 C 126.515625 22.453125 126.351562 22.386719 126.273438 22.28125 C 126.035156 21.945312 125.746094 21.855469 124.9375 21.914062 C 124.515625 21.945312 124.09375 22.011719 123.988281 22.070312 C 123.730469 22.203125 123.519531 22.191406 122.835938 21.972656 C 122.117188 21.742188 121.585938 21.730469 121.203125 21.925781 C 120.953125 22.058594 120.878906 22.058594 120.65625 21.933594 C 120.292969 21.75 119.4375 21.695312 118.226562 21.769531 Z M 136.960938 38.75 C 136.886719 38.894531 136.867188 38.894531 136.855469 38.769531 C 136.855469 38.605469 136.953125 38.460938 137.027344 38.527344 C 137.046875 38.558594 137.019531 38.652344 136.960938 38.75 Z M 136.960938 38.75 " fill-opacity="1" fill-rule="nonzero"/></g><g clip-path="url(#a1bd34970e)"><path fill="#fc7071" d="M 170.84375 47.148438 C 170.769531 47 170.714844 46.566406 170.570312 46.421875 C 170.191406 46.277344 169.875 46.011719 169.484375 45.886719 C 169.203125 45.796875 168.820312 45.695312 168.652344 45.421875 C 168.421875 45.054688 168.605469 44.609375 168.929688 44.484375 C 168.90625 44.46875 168.886719 44.449219 168.871094 44.417969 C 168.644531 44.011719 168.710938 43.246094 169.292969 43.214844 C 169.324219 43.214844 169.347656 43.21875 169.371094 43.226562 C 169.390625 43.21875 169.417969 43.214844 169.445312 43.214844 C 169.605469 43.222656 169.660156 42.953125 169.738281 42.839844 C 169.847656 42.6875 169.988281 42.648438 170.167969 42.625 C 170.421875 42.59375 170.78125 42.648438 171.011719 42.820312 C 171.027344 42.816406 171.042969 42.8125 171.0625 42.8125 C 171.664062 42.765625 172.390625 43.136719 172.613281 43.714844 C 172.625 43.738281 172.628906 43.757812 172.628906 43.78125 C 172.910156 44.308594 173.382812 44.839844 173.730469 45.3125 C 174.183594 45.917969 174.632812 46.503906 175.011719 47.15625 C 175.386719 47.800781 175.652344 48.503906 175.980469 49.175781 C 176.089844 49.402344 176.226562 49.621094 176.367188 49.832031 C 176.570312 49.652344 176.808594 49.023438 176.878906 48.886719 C 177.035156 48.578125 177.210938 48.164062 177.53125 47.992188 C 177.542969 47.984375 177.554688 47.980469 177.566406 47.976562 C 177.785156 47.457031 178.246094 47.082031 178.664062 46.722656 C 178.96875 46.460938 179.214844 46.128906 179.480469 45.828125 C 179.777344 45.5 180.128906 45.246094 180.394531 44.886719 C 180.988281 44.089844 181.078125 43.296875 180.902344 42.339844 C 180.832031 41.949219 180.734375 41.527344 180.574219 41.164062 C 180.449219 40.882812 180.277344 40.644531 180.1875 40.34375 C 180.039062 39.847656 180.449219 39.277344 180.726562 38.910156 C 181.359375 38.070312 182.304688 37.988281 183.132812 38.433594 C 183.15625 38.40625 183.191406 38.382812 183.238281 38.371094 C 184.074219 38.179688 184.757812 38.011719 185.609375 38.21875 C 185.683594 38.234375 185.753906 38.257812 185.828125 38.277344 C 185.839844 38.261719 185.851562 38.25 185.867188 38.242188 C 186.199219 38.023438 186.648438 37.535156 186.738281 37.144531 C 186.769531 37.007812 186.96875 36.945312 187.066406 37.058594 C 187.46875 37.535156 187.195312 38.261719 187.171875 38.8125 C 187.171875 38.816406 187.171875 38.816406 187.171875 38.820312 C 187.433594 38.960938 187.683594 39.117188 187.925781 39.285156 C 188.25 38.792969 188.917969 38.367188 189.339844 38.03125 C 189.878906 37.605469 190.429688 37.363281 190.699219 38.125 C 190.957031 38.839844 190.605469 39.792969 190.304688 40.4375 C 190.246094 40.566406 190.179688 40.6875 190.105469 40.804688 C 190.132812 40.835938 190.15625 40.878906 190.15625 40.9375 C 190.15625 41.9375 190.152344 42.941406 190.167969 43.941406 C 190.179688 44.84375 189.730469 45.558594 189.480469 46.394531 C 189.367188 46.769531 189.191406 47.125 189.046875 47.488281 C 188.855469 47.964844 188.847656 48.472656 188.875 48.976562 C 188.886719 49.167969 188.914062 49.359375 188.953125 49.542969 C 188.96875 49.566406 188.980469 49.589844 188.984375 49.625 C 189.050781 50 189.667969 50.242188 189.972656 50.402344 C 190.378906 50.613281 190.78125 50.800781 191.164062 51.0625 C 192.199219 51.769531 193.304688 52.339844 194.371094 53 C 196.355469 54.230469 198.40625 55.691406 199.8125 57.585938 C 201.242188 59.507812 201.992188 61.792969 202.804688 64.023438 C 203.273438 65.308594 203.769531 66.449219 204.707031 67.464844 C 205.09375 67.882812 205.566406 68.203125 206.070312 68.464844 C 206.476562 68.675781 207.035156 68.886719 207.554688 68.984375 C 207.585938 68.949219 207.632812 68.929688 207.695312 68.933594 C 210.15625 69.113281 212.554688 68.964844 214.847656 67.988281 C 215.871094 67.554688 216.886719 67.179688 217.871094 66.648438 C 218.296875 66.417969 218.703125 66.210938 219.160156 66.046875 C 219.734375 65.839844 220.195312 65.421875 220.746094 65.160156 C 221.820312 64.644531 224.546875 63.816406 224.792969 65.707031 C 224.878906 66.363281 224.332031 67.039062 223.902344 67.460938 C 223.25 68.097656 222.28125 68.308594 221.4375 68.558594 C 221.375 68.578125 221.320312 68.566406 221.28125 68.539062 C 220.550781 68.652344 219.832031 69.25 219.199219 69.59375 C 218.375 70.042969 217.539062 70.480469 216.683594 70.878906 C 215.0625 71.628906 213.253906 71.949219 211.492188 72.164062 C 209.6875 72.386719 207.75 72.53125 205.945312 72.265625 C 205.152344 72.148438 204.425781 71.917969 203.679688 71.65625 C 203.242188 71.5 202.792969 71.328125 202.457031 71.007812 C 202.046875 71.292969 201.421875 71.304688 200.972656 71.519531 C 201.101562 71.980469 201.121094 72.441406 200.859375 72.914062 C 200.507812 73.542969 199.6875 73.636719 199.046875 73.644531 C 198.023438 73.660156 196.980469 73.503906 195.953125 73.472656 C 195.527344 73.457031 195.121094 73.515625 194.71875 73.535156 C 194.664062 73.585938 194.585938 73.601562 194.507812 73.542969 C 194.25 73.546875 193.996094 73.527344 193.738281 73.460938 C 193.671875 73.480469 193.597656 73.464844 193.546875 73.398438 C 193.457031 73.363281 193.363281 73.324219 193.269531 73.273438 C 193.171875 73.21875 193.082031 73.15625 193.007812 73.082031 C 192.964844 73.121094 192.90625 73.132812 192.839844 73.109375 C 192.101562 72.828125 191.25 73.308594 190.488281 73.3125 C 189.753906 73.3125 189.386719 72.660156 189.402344 71.984375 C 189.417969 71.378906 189.878906 71.113281 190.480469 71.007812 C 190.441406 70.996094 190.40625 70.980469 190.375 70.96875 C 189.964844 70.832031 189.558594 70.769531 189.164062 70.574219 C 188.695312 70.339844 188.363281 69.902344 188.035156 69.507812 C 187.472656 68.824219 186.90625 67.984375 186.90625 67.070312 C 186.910156 66.625 187.066406 66.164062 187.4375 65.984375 C 186.730469 65.644531 186.09375 65.257812 185.464844 64.761719 C 184.890625 64.300781 184.257812 63.871094 183.835938 63.265625 C 183.570312 63.941406 183.359375 64.671875 182.949219 65.265625 C 182.675781 65.660156 182.410156 66.0625 182.144531 66.464844 C 181.511719 67.414062 180.867188 68.363281 180.277344 69.34375 C 179.863281 70.042969 180.066406 71.375 179.246094 71.796875 C 179.476562 72.21875 179.5625 72.722656 179.382812 73.183594 C 179.179688 73.703125 178.546875 73.699219 178.171875 73.386719 C 178.164062 73.398438 178.160156 73.410156 178.152344 73.421875 C 178.011719 73.640625 177.722656 73.738281 177.476562 73.75 C 177.101562 73.761719 176.789062 73.535156 176.617188 73.226562 C 176.554688 73.292969 176.492188 73.351562 176.417969 73.398438 C 175.988281 73.6875 175.625 73.296875 175.472656 72.921875 C 175.167969 72.183594 175.632812 71.609375 176.253906 71.304688 C 176.476562 70.871094 176.519531 70.394531 176.671875 69.925781 C 176.863281 69.332031 177.0625 68.738281 177.292969 68.15625 C 177.589844 67.402344 177.796875 66.652344 177.96875 65.863281 C 178.117188 65.160156 178.265625 64.460938 178.421875 63.761719 C 178.511719 63.355469 178.558594 62.828125 178.777344 62.460938 C 178.789062 62.441406 178.800781 62.425781 178.816406 62.414062 C 178.976562 61.75 179.019531 61.054688 178.902344 60.382812 C 178.769531 59.644531 178.328125 58.980469 178.097656 58.269531 C 178.097656 58.269531 178.097656 58.265625 178.097656 58.265625 C 177.726562 58.386719 177.191406 58.339844 176.925781 58.277344 C 175.402344 57.925781 174.832031 56.527344 174.246094 55.238281 C 173.921875 54.527344 173.433594 53.914062 173.097656 53.214844 C 172.75 52.492188 172.648438 51.597656 172.515625 50.816406 C 172.429688 50.316406 172.335938 49.882812 172.085938 49.433594 C 171.878906 49.054688 171.613281 48.714844 171.414062 48.332031 C 171.207031 47.945312 171.035156 47.542969 170.84375 47.148438 " fill-opacity="1" fill-rule="nonzero"/></g><g clip-path="url(#f0acf1e539)"><path fill="#fc7071" d="M 115.015625 68.277344 C 115.015625 68.277344 115.789062 62.6875 111.355469 57.363281 C 106.921875 52.042969 103.054688 54.671875 103.054688 54.671875 C 103.054688 54.671875 101.507812 52.503906 101.972656 51.320312 C 102.4375 50.132812 104.34375 48.382812 104.601562 46.320312 C 104.859375 44.257812 106.046875 41.527344 104.910156 41.476562 C 103.777344 41.421875 101.664062 47.96875 101.664062 47.96875 C 101.664062 47.96875 105.632812 36.9375 100.890625 43.019531 C 99.070312 45.355469 98.46875 48.898438 98.46875 48.898438 C 98.46875 48.898438 96.765625 49.308594 96.5625 49.773438 C 96.355469 50.238281 94.136719 50.90625 92.851562 52.816406 C 91.5625 54.722656 91.355469 55.339844 91.769531 56.113281 C 92.179688 56.886719 93.777344 58.691406 94.964844 58.277344 L 95.53125 59.050781 C 95.53125 59.050781 94.191406 64 98.878906 67.816406 C 98.878906 67.816406 99.550781 69.875 99.242188 70.699219 C 98.933594 71.527344 97.851562 72.09375 97.851562 72.609375 C 97.851562 73.125 99.035156 73.640625 100.222656 73.382812 C 101.40625 73.125 100.839844 73.449219 100.839844 73.449219 C 100.839844 73.449219 104.5 73.484375 104.964844 73.226562 C 105.425781 72.96875 105.425781 72.195312 105.425781 72.195312 C 105.425781 72.195312 106.199219 73.175781 106.457031 73.074219 C 106.714844 72.96875 110.789062 73.933594 111.199219 73.453125 C 111.613281 72.96875 112.59375 73.226562 112.59375 73.226562 C 112.59375 73.226562 113.878906 71.578125 114.292969 70.753906 C 114.707031 69.929688 114.921875 71.9375 116.613281 70.90625 C 118.300781 69.875 118.46875 66.113281 115.015625 68.277344 " fill-opacity="1" fill-rule="nonzero"/></g><g clip-path="url(#850df7fb9a)"><path fill="#fc7071" d="M 150.820312 35.0625 L 149.089844 35.234375 L 148.617188 34.542969 L 151.300781 31.320312 C 151.554688 31.433594 151.792969 31.539062 152.015625 31.640625 Z M 146.828125 17.945312 C 146.828125 18.46875 146.035156 18.46875 146.035156 17.945312 C 146.035156 17.417969 146.828125 17.417969 146.828125 17.945312 Z M 163.929688 34.136719 L 162.878906 33.671875 C 162.839844 33.65625 158.910156 31.878906 156.503906 27.5625 C 154.320312 23.644531 150.734375 23.996094 149.65625 20.664062 C 149.058594 18.828125 149.433594 18.539062 151.230469 17.160156 C 150.667969 16.84375 150.035156 16.574219 149.359375 16.765625 C 148.03125 15.1875 146.078125 15.609375 144.851562 16.925781 C 143.140625 18.761719 142.5 23.855469 144.742188 27.179688 C 146.21875 29.375 148.0625 29.875 150.910156 31.144531 L 148.230469 34.367188 L 145.691406 35.800781 C 145.507812 35.90625 145.578125 36.1875 145.792969 36.1875 C 145.878906 36.1875 148.222656 34.847656 148.296875 34.800781 C 149.476562 36.53125 149.503906 36.699219 149.730469 36.542969 C 149.953125 36.394531 149.753906 36.207031 149.351562 35.621094 L 150.902344 35.464844 C 152.394531 36.726562 152.480469 36.894531 152.660156 36.683594 C 152.839844 36.46875 152.65625 36.40625 151.210938 35.1875 L 152.394531 31.816406 C 153.972656 32.535156 155.148438 33.085938 155.945312 33.5625 C 155.941406 33.273438 155.953125 32.59375 155.742188 31.523438 C 156.789062 32.328125 159.3125 33.855469 162.785156 34.066406 L 163.929688 34.136719 " fill-opacity="1" fill-rule="nonzero"/></g></svg>