<svg xmlns="http://www.w3.org/2000/svg" xmlns:xlink="http://www.w3.org/1999/xlink" width="400" zoomAndPan="magnify" viewBox="0 0 300 74.999997" height="100" preserveAspectRatio="xMidYMid meet" version="1.0"><defs><g/><clipPath id="f5dd904018"><path d="M 36.578125 22.488281 L 65.828125 22.488281 L 65.828125 55.488281 L 36.578125 55.488281 Z M 36.578125 22.488281 " clip-rule="nonzero"/></clipPath></defs><g fill="#ffffff" fill-opacity="1"><g transform="translate(101.938613, 54.150382)"><g><path d="M 35.40625 -14.1875 L 12.65625 -14.1875 C 12.65625 -11.988281 13.367188 -10.359375 14.796875 -9.296875 C 16.222656 -8.234375 17.773438 -7.703125 19.453125 -7.703125 C 21.203125 -7.703125 22.585938 -7.9375 23.609375 -8.40625 C 24.628906 -8.875 25.789062 -9.800781 27.09375 -11.1875 L 34.921875 -7.28125 C 31.660156 -1.8125 26.238281 0.921875 18.65625 0.921875 C 13.925781 0.921875 9.867188 -0.695312 6.484375 -3.9375 C 3.097656 -7.1875 1.40625 -11.09375 1.40625 -15.65625 C 1.40625 -20.21875 3.097656 -24.128906 6.484375 -27.390625 C 9.867188 -30.660156 13.925781 -32.296875 18.65625 -32.296875 C 23.625 -32.296875 27.664062 -30.859375 30.78125 -27.984375 C 33.90625 -25.109375 35.46875 -21 35.46875 -15.65625 C 35.46875 -14.925781 35.445312 -14.4375 35.40625 -14.1875 Z M 12.96875 -20.1875 L 24.890625 -20.1875 C 24.648438 -21.8125 24.007812 -23.0625 22.96875 -23.9375 C 21.925781 -24.8125 20.585938 -25.25 18.953125 -25.25 C 17.160156 -25.25 15.734375 -24.78125 14.671875 -23.84375 C 13.617188 -22.90625 13.050781 -21.6875 12.96875 -20.1875 Z M 12.96875 -20.1875 "/></g></g></g><g fill="#ffffff" fill-opacity="1"><g transform="translate(133.06391, 54.150382)"><g><path d="M 5.5 -31.375 L 5.5 -43.046875 L 16.328125 -43.046875 L 16.328125 -31.375 L 22.9375 -31.375 L 22.9375 -23.109375 L 16.328125 -23.109375 L 16.328125 -13.15625 C 16.328125 -10.257812 17.144531 -8.8125 18.78125 -8.8125 C 19.1875 -8.8125 19.613281 -8.890625 20.0625 -9.046875 C 20.507812 -9.210938 20.851562 -9.378906 21.09375 -9.546875 L 21.46875 -9.78125 L 24.15625 -1.046875 C 21.832031 0.265625 19.179688 0.921875 16.203125 0.921875 C 14.171875 0.921875 12.421875 0.566406 10.953125 -0.140625 C 9.484375 -0.859375 8.367188 -1.816406 7.609375 -3.015625 C 6.859375 -4.222656 6.316406 -5.488281 5.984375 -6.8125 C 5.660156 -8.144531 5.5 -9.5625 5.5 -11.0625 L 5.5 -23.109375 L 0.984375 -23.109375 L 0.984375 -31.375 Z M 5.5 -31.375 "/></g></g></g><g fill="#ffffff" fill-opacity="1"><g transform="translate(151.469841, 54.150382)"><g><path d="M 3.671875 0 L 3.671875 -52.59375 L 14.5 -52.59375 L 14.5 0 Z M 3.671875 0 "/></g></g></g><g fill="#ffffff" fill-opacity="1"><g transform="translate(163.882998, 54.150382)"><g><path d="M 13.875 -31.375 L 13.875 -16.453125 C 13.875 -13.347656 14.34375 -11.144531 15.28125 -9.84375 C 16.226562 -8.539062 17.820312 -7.890625 20.0625 -7.890625 C 22.300781 -7.890625 23.890625 -8.539062 24.828125 -9.84375 C 25.765625 -11.144531 26.234375 -13.347656 26.234375 -16.453125 L 26.234375 -31.375 L 37.0625 -31.375 L 37.0625 -13.828125 C 37.0625 -8.609375 35.703125 -4.84375 32.984375 -2.53125 C 30.273438 -0.226562 25.960938 0.921875 20.046875 0.921875 C 14.140625 0.921875 9.832031 -0.226562 7.125 -2.53125 C 4.414062 -4.84375 3.0625 -8.609375 3.0625 -13.828125 L 3.0625 -31.375 Z M 13.875 -31.375 "/></g></g></g><g fill="#ffffff" fill-opacity="1"><g transform="translate(198.249288, 54.150382)"><g><path d="M 20.359375 -23.421875 C 18.328125 -23.421875 16.578125 -22.664062 15.109375 -21.15625 C 13.640625 -19.644531 12.90625 -17.832031 12.90625 -15.71875 C 12.90625 -13.550781 13.640625 -11.710938 15.109375 -10.203125 C 16.578125 -8.703125 18.328125 -7.953125 20.359375 -7.953125 C 21.335938 -7.953125 22.265625 -8.070312 23.140625 -8.3125 C 24.023438 -8.5625 24.671875 -8.804688 25.078125 -9.046875 L 25.625 -9.421875 L 29.296875 -1.890625 C 29.003906 -1.691406 28.601562 -1.4375 28.09375 -1.125 C 27.59375 -0.820312 26.429688 -0.40625 24.609375 0.125 C 22.796875 0.65625 20.851562 0.921875 18.78125 0.921875 C 14.164062 0.921875 10.113281 -0.695312 6.625 -3.9375 C 3.144531 -7.1875 1.40625 -11.070312 1.40625 -15.59375 C 1.40625 -20.15625 3.144531 -24.078125 6.625 -27.359375 C 10.113281 -30.648438 14.164062 -32.296875 18.78125 -32.296875 C 20.851562 -32.296875 22.765625 -32.050781 24.515625 -31.5625 C 26.273438 -31.070312 27.519531 -30.582031 28.25 -30.09375 L 29.296875 -29.359375 L 25.625 -21.953125 C 24.28125 -22.929688 22.523438 -23.421875 20.359375 -23.421875 Z M 20.359375 -23.421875 "/></g></g></g><g fill="#ffffff" fill-opacity="1"><g transform="translate(222.525694, 54.150382)"><g><path d="M 39.5 -31.375 L 24.578125 -16.390625 L 40.96875 0 L 27.03125 0 L 14.5 -12.53125 L 14.5 0 L 3.671875 0 L 3.671875 -52.59375 L 14.5 -52.59375 L 14.5 -20.421875 L 25.4375 -31.375 Z M 39.5 -31.375 "/></g></g></g><g clip-path="url(#f5dd904018)"><path fill="#ffffff" d="M 51.296875 30.742188 C 51.800781 30.933594 52.921875 31.03125 53.375 30.679688 C 53.921875 30.25 53.214844 29.242188 52.496094 28.769531 C 51.820312 29.320312 51.433594 29.984375 51.296875 30.742188 Z M 66.078125 33.742188 C 66.078125 27.554688 61.015625 22.488281 54.828125 22.488281 L 37.515625 22.488281 C 37.199219 22.488281 36.890625 22.5 36.585938 22.53125 L 36.585938 29.800781 C 36.863281 29.476562 37.195312 29.242188 37.589844 29.128906 C 39.851562 28.464844 40.691406 30.929688 40.074219 32.890625 C 38.972656 36.425781 41.453125 36.695312 43.792969 34.96875 C 46.171875 33.210938 47.472656 30.695312 47.132812 26.605469 C 48.15625 26.675781 49.183594 26.578125 50.191406 26.675781 C 52.203125 26.867188 53.300781 27.746094 54.652344 29.371094 C 55.511719 30.417969 56.003906 30.785156 56.578125 30.980469 C 58.082031 31.488281 63.136719 32 63.667969 33.261719 C 63.980469 34.007812 63.460938 34.550781 62.695312 35.035156 C 61.710938 38.148438 60 39.101562 57.070312 39.609375 C 51.460938 40.582031 45.738281 41.828125 41.761719 44.988281 C 38.917969 47.25 36.960938 50.496094 36.585938 55.324219 L 43.53125 55.324219 C 43.617188 49.046875 48.257812 46.617188 53.59375 45.4375 C 59.898438 44.046875 66.078125 42.277344 66.078125 33.742188 Z M 66.078125 33.742188 " fill-opacity="1" fill-rule="evenodd"/></g></svg>