<svg width="20" height="23" viewBox="0 0 18 18" fill="none" xmlns="http://www.w3.org/2000/svg">
  <path d="M1 0H17C17.5523 0 18 0.447715 18 1V4C18 4.26522 17.8946 4.51957 17.7071 4.70711L12 10.4142V15.5C12 15.7761 11.7761 16 11.5 16H6.5C6.22386 16 6 15.7761 6 15.5V10.4142L0.292893 4.70711C0.105357 4.51957 0 4.26522 0 4V1C0 0.447715 0.447715 0 1 0ZM2 2V3.58579L7.29289 8.87868C7.68342 9.2692 8 9.90237 8 10.4142V14H10V10.4142C10 9.90237 10.3166 9.2692 10.7071 8.87868L16 3.58579V2H2Z" fill="#fc7071"/>
</svg>
