<svg xmlns="http://www.w3.org/2000/svg" xmlns:xlink="http://www.w3.org/1999/xlink" width="500" zoomAndPan="magnify" viewBox="0 0 375 374.999991" height="500" preserveAspectRatio="xMidYMid meet" version="1.0"><defs><g/><clipPath id="bad0c74113"><path d="M 62.925781 167.917969 L 101.175781 167.917969 L 101.175781 210.667969 L 62.925781 210.667969 Z M 62.925781 167.917969 " clip-rule="nonzero"/></clipPath></defs><g fill="#ffffff" fill-opacity="1"><g transform="translate(101.430233, 209.219216)"><g><path d="M 46.1875 -18.5 L 16.515625 -18.5 C 16.515625 -15.632812 17.441406 -13.507812 19.296875 -12.125 C 21.160156 -10.738281 23.179688 -10.046875 25.359375 -10.046875 C 27.648438 -10.046875 29.457031 -10.351562 30.78125 -10.96875 C 32.113281 -11.582031 33.632812 -12.789062 35.34375 -14.59375 L 45.546875 -9.484375 C 41.296875 -2.359375 34.222656 1.203125 24.328125 1.203125 C 18.160156 1.203125 12.867188 -0.910156 8.453125 -5.140625 C 4.035156 -9.367188 1.828125 -14.460938 1.828125 -20.421875 C 1.828125 -26.378906 4.035156 -31.484375 8.453125 -35.734375 C 12.867188 -39.984375 18.160156 -42.109375 24.328125 -42.109375 C 30.816406 -42.109375 36.09375 -40.234375 40.15625 -36.484375 C 44.226562 -32.742188 46.265625 -27.390625 46.265625 -20.421875 C 46.265625 -19.460938 46.238281 -18.820312 46.1875 -18.5 Z M 16.90625 -26.328125 L 32.46875 -26.328125 C 32.144531 -28.453125 31.304688 -30.082031 29.953125 -31.21875 C 28.597656 -32.363281 26.859375 -32.9375 24.734375 -32.9375 C 22.390625 -32.9375 20.523438 -32.328125 19.140625 -31.109375 C 17.753906 -29.890625 17.007812 -28.296875 16.90625 -26.328125 Z M 16.90625 -26.328125 "/></g></g></g><g fill="#ffffff" fill-opacity="1"><g transform="translate(142.030953, 209.219216)"><g><path d="M 7.171875 -40.921875 L 7.171875 -56.15625 L 21.296875 -56.15625 L 21.296875 -40.921875 L 29.90625 -40.921875 L 29.90625 -30.15625 L 21.296875 -30.15625 L 21.296875 -17.15625 C 21.296875 -13.375 22.359375 -11.484375 24.484375 -11.484375 C 25.015625 -11.484375 25.570312 -11.585938 26.15625 -11.796875 C 26.75 -12.015625 27.203125 -12.226562 27.515625 -12.4375 L 28 -12.765625 L 31.5 -1.359375 C 28.46875 0.347656 25.015625 1.203125 21.140625 1.203125 C 18.484375 1.203125 16.195312 0.738281 14.28125 -0.1875 C 12.363281 -1.125 10.910156 -2.375 9.921875 -3.9375 C 8.941406 -5.507812 8.238281 -7.160156 7.8125 -8.890625 C 7.382812 -10.617188 7.171875 -12.46875 7.171875 -14.4375 L 7.171875 -30.15625 L 1.28125 -30.15625 L 1.28125 -40.921875 Z M 7.171875 -40.921875 "/></g></g></g><g fill="#ffffff" fill-opacity="1"><g transform="translate(166.040171, 209.219216)"><g><path d="M 4.78125 0 L 4.78125 -68.59375 L 18.90625 -68.59375 L 18.90625 0 Z M 4.78125 0 "/></g></g></g><g fill="#ffffff" fill-opacity="1"><g transform="translate(182.232245, 209.219216)"><g><path d="M 18.109375 -40.921875 L 18.109375 -21.453125 C 18.109375 -17.410156 18.71875 -14.539062 19.9375 -12.84375 C 21.164062 -11.144531 23.238281 -10.296875 26.15625 -10.296875 C 29.082031 -10.296875 31.15625 -11.144531 32.375 -12.84375 C 33.601562 -14.539062 34.21875 -17.410156 34.21875 -21.453125 L 34.21875 -40.921875 L 48.34375 -40.921875 L 48.34375 -18.03125 C 48.34375 -11.21875 46.570312 -6.304688 43.03125 -3.296875 C 39.5 -0.296875 33.875 1.203125 26.15625 1.203125 C 18.445312 1.203125 12.820312 -0.296875 9.28125 -3.296875 C 5.75 -6.304688 3.984375 -11.21875 3.984375 -18.03125 L 3.984375 -40.921875 Z M 18.109375 -40.921875 "/></g></g></g><g fill="#ffffff" fill-opacity="1"><g transform="translate(227.060607, 209.219216)"><g><path d="M 26.5625 -30.546875 C 23.90625 -30.546875 21.617188 -29.5625 19.703125 -27.59375 C 17.785156 -25.625 16.828125 -23.257812 16.828125 -20.5 C 16.828125 -17.675781 17.785156 -15.28125 19.703125 -13.3125 C 21.617188 -11.351562 23.90625 -10.375 26.5625 -10.375 C 27.832031 -10.375 29.039062 -10.53125 30.1875 -10.84375 C 31.332031 -11.164062 32.171875 -11.488281 32.703125 -11.8125 L 33.421875 -12.28125 L 38.203125 -2.46875 C 37.835938 -2.207031 37.320312 -1.875 36.65625 -1.46875 C 35.988281 -1.070312 34.472656 -0.53125 32.109375 0.15625 C 29.742188 0.851562 27.203125 1.203125 24.484375 1.203125 C 18.472656 1.203125 13.191406 -0.910156 8.640625 -5.140625 C 4.097656 -9.367188 1.828125 -14.4375 1.828125 -20.34375 C 1.828125 -26.300781 4.097656 -31.414062 8.640625 -35.6875 C 13.191406 -39.96875 18.472656 -42.109375 24.484375 -42.109375 C 27.203125 -42.109375 29.703125 -41.789062 31.984375 -41.15625 C 34.273438 -40.519531 35.898438 -39.882812 36.859375 -39.25 L 38.203125 -38.28125 L 33.421875 -28.640625 C 31.671875 -29.910156 29.382812 -30.546875 26.5625 -30.546875 Z M 26.5625 -30.546875 "/></g></g></g><g fill="#ffffff" fill-opacity="1"><g transform="translate(258.72744, 209.219216)"><g><path d="M 51.53125 -40.921875 L 32.0625 -21.375 L 53.4375 0 L 35.25 0 L 18.90625 -16.359375 L 18.90625 0 L 4.78125 0 L 4.78125 -68.59375 L 18.90625 -68.59375 L 18.90625 -26.640625 L 33.1875 -40.921875 Z M 51.53125 -40.921875 "/></g></g></g><g clip-path="url(#bad0c74113)"><path fill="#ffffff" d="M 82.128906 178.683594 C 82.785156 178.9375 84.25 179.0625 84.835938 178.601562 C 85.550781 178.042969 84.628906 176.726562 83.691406 176.109375 C 82.8125 176.832031 82.308594 177.695312 82.128906 178.683594 Z M 101.410156 182.597656 C 101.410156 174.523438 94.804688 167.917969 86.734375 167.917969 L 64.148438 167.917969 C 63.742188 167.917969 63.339844 167.933594 62.9375 167.972656 L 62.9375 177.457031 C 63.300781 177.03125 63.734375 176.726562 64.246094 176.578125 C 67.199219 175.714844 68.292969 178.929688 67.488281 181.488281 C 66.054688 186.101562 69.289062 186.449219 72.339844 184.195312 C 75.441406 181.90625 77.136719 178.625 76.699219 173.289062 C 78.03125 173.378906 79.371094 173.253906 80.6875 173.378906 C 83.3125 173.632812 84.742188 174.777344 86.503906 176.898438 C 87.625 178.257812 88.265625 178.742188 89.019531 178.996094 C 90.980469 179.65625 97.570312 180.328125 98.265625 181.972656 C 98.671875 182.945312 97.996094 183.652344 97 184.285156 C 95.710938 188.347656 93.480469 189.589844 89.65625 190.25 C 82.34375 191.523438 74.875 193.144531 69.691406 197.265625 C 65.980469 200.21875 63.429688 204.453125 62.9375 210.75 L 71.996094 210.75 C 72.109375 202.5625 78.164062 199.394531 85.128906 197.851562 C 93.347656 196.039062 101.410156 193.730469 101.410156 182.597656 Z M 101.410156 182.597656 " fill-opacity="1" fill-rule="evenodd"/></g></svg>